<svg xmlns="http://www.w3.org/2000/svg" width="488" height="739" viewBox="0 0 488 739"><style>.a{fill:#333;}</style><title>  HM_logo</title><desc>  Created using Figma</desc><use xlink:href="#path0_fill" transform="translate(-2770.02 13.0254)" class="a"/><use xlink:href="#path1_fill" transform="translate(-2770.02 13.0254)" class="a"/><use xlink:href="#path2_fill" transform="translate(-2770.02 13.0254)" class="a"/><defs><path class="logo" d="M38.9 725.4L70.5 738.8 378.4 13.4 346.9 0 38.9 725.4Z"/><path d="M191.7 183.2L227.5 183.2 227.5 268 183.2 372.4 35.8 372.4 35.8 517.2 0 517.2 0 183.9 35.8 183.9 35.8 336.6 191.7 336.6 191.7 183.2Z"/><path d="M486.7 594.1L350.1 272.3 327.8 272.3 254.4 445.4 227.7 382.6 208.2 428.4 243.2 510.8 265.5 510.8 339 337.7 453.7 608.1 486.7 594.1Z"/></defs></svg>